<?xml version="1.0" encoding="utf-8"?>
<!-- Generator: Adobe Illustrator 16.0.3, SVG Export Plug-In . SVG Version: 6.00 Build 0)  -->
<!DOCTYPE svg PUBLIC "-//W3C//DTD SVG 1.1//EN" "http://www.w3.org/Graphics/SVG/1.1/DTD/svg11.dtd">
<svg version="1.1" id="Layer_1" xmlns="http://www.w3.org/2000/svg" xmlns:xlink="http://www.w3.org/1999/xlink" x="0px" y="0px"
	 width="460px" height="560px" viewBox="0 0 460 560" enable-background="new 0 0 460 560" xml:space="preserve">
<g>
	<path fill="#757777" d="M33.999,88.01c0,0,21.991,25.521,20.932,25.964c-1.058,0.442,42.79-15.061,42.79-15.061L33.999,88.01z"/>
	<polygon fill="#989995" points="117.314,30.98 33.999,88.01 97.721,98.913 	"/>
	<polyline fill="#767875" points="118.746,30.285 141.423,18.627 119.102,3.231 117.314,30.98 	"/>
	<polyline fill="#8A8B8A" points="142.709,19.522 177.332,47.629 188.942,5.938 141.205,18.912 	"/>
	<polygon fill="#8A8B8A" points="181.185,32.698 223.235,31.55 208.338,51.624 	"/>
	<polygon fill="#7A7B7B" points="177.332,47.629 208.338,51.624 181.185,32.698 	"/>
	<polygon fill="#C1C1C1" points="223.235,31.55 241.99,58.71 208.338,51.624 	"/>
	<polygon fill="#D3CECD" points="208.338,51.624 230.12,74.845 269.86,77.281 240.547,57.788 	"/>
	<polygon fill="#737473" points="97.721,98.913 133.765,100.319 177.332,47.629 117.314,30.98 	"/>
	<polygon fill="#686869" points="133.765,100.319 107.558,168.924 198.205,99.089 177.332,47.629 	"/>
	<polygon fill="#5A5C5C" points="198.205,99.089 208.338,51.624 177.332,47.629 	"/>
	<polygon fill="#747273" points="208.338,51.624 230.12,74.845 197.904,100.646 	"/>
	<polygon fill="#606162" points="197.904,100.646 221.875,107.491 230.12,74.845 	"/>
	<polygon fill="#C2C2C0" points="230.12,74.845 265.46,106.792 221.875,107.491 	"/>
	<polygon fill="#878888" points="107.558,168.924 179.791,219.73 198.205,99.089 	"/>
	<polygon fill="#9D9D9D" points="197.904,100.646 230.368,181.123 179.63,218.882 	"/>
	<polygon fill="#6D6F6E" points="221.875,107.491 230.368,181.123 197.904,100.646 	"/>
	<polygon fill="#DADADA" points="248.179,131.668 279.786,176.182 229.804,180.895 	"/>
	<polygon fill="#ACACAD" points="107.558,168.924 90.43,240.879 179.41,219.172 	"/>
	<polyline fill="#7E7F7E" points="89.463,179.52 107.558,168.924 90.43,240.879 89.217,179.945 	"/>
	<polygon fill="#838182" points="90.43,240.879 118.884,286.671 179.63,218.882 	"/>
	<polygon fill="#808280" points="39.068,234.824 15.974,295.701 30.949,310.509 42.045,283.25 49.212,264.606 39.961,263.801 	"/>
	<polyline fill="#7A7A7B" points="55.981,259.766 80.062,272.761 106.555,266.531 90.728,240.167 55.981,259.766 51.783,257.994 
		49.212,264.606 35.788,265.265 39.904,223.769 89.851,239.679 90.728,240.167 	"/>
	<polygon fill="#4F504D" points="118.757,285.645 65.023,307.012 41.182,284.367 80.062,272.761 106.555,266.531 	"/>
	<polygon fill="#8C8B87" points="65.023,307.012 72.316,338.109 42.896,329.251 11.753,290.678 41.182,284.367 	"/>
	<polygon fill="#595B58" points="42.896,329.251 70.338,365.171 72.316,338.109 	"/>
	<polygon fill="#6F7070" points="72.316,338.109 90.983,337.156 102.329,367.42 70.338,365.171 	"/>
	<polyline fill="#7B7977" points="118.884,286.671 160.913,302.434 180.362,218.458 118.757,285.645 	"/>
	<polygon fill="#8F908F" points="230.368,181.123 255.49,215.59 178.171,219.718 	"/>
	<polygon fill="#A4A4A4" points="255.699,214.937 205.055,305.989 179.63,218.882 	"/>
	<polyline fill="#C8C8C6" points="232.664,182.656 276.129,206.105 255.49,215.59 229.551,181.566 248.327,131.732 221.413,107.37 
		229.769,180.016 	"/>
	<polygon fill="#B6BABA" points="160.295,302.449 215.55,337.3 179.791,219.73 	"/>
	<polyline fill="#D4D6D5" points="255.953,215.712 288.794,247.487 205.164,305.326 256.178,214.029 	"/>
	<polygon fill="#D4D6D5" points="288.794,247.487 274.088,304.056 205.001,305.01 	"/>
	<polygon fill="#B1B1B2" points="205.001,305.01 215.55,337.3 274.088,304.056 	"/>
	<polygon fill="#C9CBCB" points="288.794,247.487 350.406,271.519 274.188,304.719 	"/>
	<polygon fill="#BABABB" points="350.406,271.519 386.027,325.31 272.985,304.785 	"/>
	<polyline fill="#9C9D9B" points="384.788,325.237 272.408,304.382 215.55,337.3 266.556,356.539 386.23,326.161 	"/>
	<polygon fill="#9C9D9B" points="350.406,271.519 396.213,316.447 398.174,328.124 385.435,325.246 	"/>
	<polygon fill="#8C8E8D" points="386.23,326.161 380.863,375.826 266.556,356.539 	"/>
	<polygon fill="#C0BFBF" points="380.863,375.826 317.861,426.733 266.556,356.539 	"/>
	<polygon fill="#ADACAD" points="380.863,375.826 355.491,423.29 317.861,426.733 	"/>
	<polygon fill="#D3D3D3" points="355.491,423.29 375.074,461.27 355.375,465.897 317.861,426.733 	"/>
	<polygon fill="#A9A9A9" points="355.375,465.897 342.953,500.025 375.074,461.27 	"/>
	<polygon fill="#D2D2D2" points="375.074,461.27 358.1,529.073 343.508,498.834 	"/>
	<polygon fill="#B9B9BA" points="343.508,498.834 300.047,558.231 358.1,529.073 	"/>
	<polygon fill="#8E8E8E" points="300.047,558.231 335.622,558.231 349.576,532.936 	"/>
	<polyline fill="#5A5B58" points="266.556,356.539 266.355,357.51 260.471,386.408 316.711,424.293 	"/>
	<polygon fill="#706E6E" points="315.583,423.432 309.262,471.302 284.138,460.36 260.471,386.408 	"/>
	<polyline fill="#595959" points="284.834,461.793 263.479,503.56 244.003,488.531 284.138,460.36 	"/>
	<polygon fill="#757777" points="309.262,471.302 264.743,505.413 236.906,540.45 209.53,537.796 244.003,488.531 263.037,502.492 
		284.138,460.36 	"/>
	<polygon fill="#B2B3B1" points="395.483,316.031 434.001,336.963 412.605,344.492 398.174,328.124 	"/>
	<polyline fill="#A1A2A2" points="432.93,337.482 432.486,338.421 421.155,362.564 394.118,420.146 441.712,445.719 
		434.001,336.963 	"/>
	<polygon fill="#6C6B68" points="385.435,325.246 405.463,347.485 394.297,419.211 419.789,365.242 432.93,337.482 413.634,344.207 
		398.174,328.124 	"/>
	<path fill="#A1A2A2" d="M425.126,340.107"/>
	<polygon fill="#858787" points="394.118,420.146 441.712,445.719 422.571,454.165 	"/>
	<path fill="#767875" d="M175.201,46.915"/>
	<polygon fill="#989995" points="177.332,47.629 141.423,18.627 117.314,30.98 	"/>
	<polyline fill="#5A5B58" points="236.906,540.45 209.53,537.796 197.297,558.231 223.928,558.231 	"/>
	<polygon fill="#9D9E9E" points="441.753,445.505 437.247,468.859 422.614,453.951 	"/>
</g>
</svg>
